<?xml version="1.0" encoding="iso-8859-1"?>
<!-- Generator: Adobe Illustrator 19.0.0, SVG Export Plug-In . SVG Version: 6.00 Build 0)  -->
<svg version="1.1" id="Layer_1" xmlns="http://www.w3.org/2000/svg" xmlns:xlink="http://www.w3.org/1999/xlink" x="0px" y="0px"
	 viewBox="0 0 512.001 512.001" style="enable-background:new 0 0 512.001 512.001;" xml:space="preserve">
<path style="fill:#9CAC74;" d="M466.4,208.913l-37.899,37.899l-46.8-45.058l59.669-27.993
	C450.088,185.013,458.442,196.742,466.4,208.913z"/>
<path style="fill:#BCC987;" d="M441.369,173.76l-43.83,43.83C331.157,151.21,271.131,81.08,218.469,12.612
	C298.521,36.44,378.921,93.036,441.369,173.76z"/>
<path style="fill:#C8DB86;" d="M428.501,246.812l-23.756,23.756c-7.42-12.694-15.117-25.079-23.044-37.139l23.756-23.756
	C413.383,221.733,421.081,234.118,428.501,246.812z"/>
<path style="fill:#D4ED85;" d="M405.457,209.673L381.7,233.43C311.136,126.026,221.851,44.232,134.181,0.006
	c27.502-0.183,55.875,4.149,84.288,12.607C285.709,59.484,351.134,126.984,405.457,209.673z"/>
<path style="fill:#5D734F;" d="M470.295,204.224c-3.28-3.28-8.599-3.28-11.879,0l-84.036,84.036H254.591
	c-2.227,0-4.364,0.885-5.939,2.46l-52.544,52.544l11.879,11.879l50.084-50.084h119.791c2.227,0,4.364-0.885,5.939-2.46
	l86.495-86.495C473.575,212.821,473.575,207.504,470.295,204.224z"/>
<path style="fill:#FEC45E;" d="M196.324,360.769L50.298,500.951c14.729,14.729,38.621,14.737,53.357,0l100.588-100.588
	L196.324,360.769z"/>
<path style="fill:#FCDB5A;" d="M204.243,368.688L87.818,485.112c-14.737,14.737-31.533,21.825-37.52,15.838
	c-14.737-14.737-14.737-38.621,0-53.357l100.588-100.588L204.243,368.688z"/>
<path style="fill:#9CAC74;" d="M227.999,348.321l-7.436-7.436l-32.159,43.641l15.838,15.838l23.756-23.756
	C235.807,368.799,235.807,356.129,227.999,348.321z"/>
<path style="fill:#BCC987;" d="M212.162,360.768l-23.756,23.756l-37.52-37.52l23.756-23.756c7.808-7.808,20.471-7.816,28.278-0.008
	l17.643,17.643C223.73,344.052,219.97,352.96,212.162,360.768z"/>
<g>
</g>
<g>
</g>
<g>
</g>
<g>
</g>
<g>
</g>
<g>
</g>
<g>
</g>
<g>
</g>
<g>
</g>
<g>
</g>
<g>
</g>
<g>
</g>
<g>
</g>
<g>
</g>
<g>
</g>
</svg>
