<?xml version="1.0" encoding="iso-8859-1"?>
<!-- Generator: Adobe Illustrator 22.0.1, SVG Export Plug-In . SVG Version: 6.00 Build 0)  -->
<svg version="1.1" xmlns="http://www.w3.org/2000/svg" xmlns:xlink="http://www.w3.org/1999/xlink" x="0px" y="0px"
	 viewBox="0 0 270 270" style="enable-background:new 0 0 270 270;" xml:space="preserve">
<g id="Layer_1">
	<g>
		<path style="fill:#8BC53F;" d="M101.743,140.224c-0.848,2.637-4.492,16.364,6.977,27.833c6.637,6.637,14.004,8.22,19.522,8.22
			c2.043,0,3.829-0.218,5.235-0.476v21.282c0,1.796,1.456,3.253,3.253,3.253c1.796,0,3.253-1.456,3.253-3.253v-21.291
			c1.413,0.262,3.216,0.484,5.281,0.484c5.519,0,12.886-1.584,19.522-8.22c11.469-11.469,7.824-25.196,6.977-27.833
			c-0.287-0.981-1.025-1.782-2.005-2.141c-0.198-0.072-1.801-0.639-4.291-1.004c10.638-11.32,7.126-24.545,6.296-27.128
			c-0.287-0.981-1.025-1.782-2.005-2.141c-0.457-0.167-8.419-2.975-17.491,0.182c0.512-2.101,0.812-4.412,0.812-6.947
			c0-16.219-12.283-23.348-14.747-24.614c-0.897-0.491-1.985-0.536-2.931-0.096c-0.61,0.283-14.939,7.141-14.939,24.71
			c0,2.54,0.301,4.855,0.815,6.96c-9.088-3.178-17.072-0.363-17.529-0.196c-0.98,0.358-1.717,1.16-2.005,2.141
			c-0.83,2.583-4.343,15.808,6.296,27.128c-2.49,0.364-4.093,0.932-4.291,1.004C102.768,138.442,102.03,139.243,101.743,140.224z
			 M160.186,163.457c-7.506,7.507-16.205,6.587-19.674,5.818c-0.756-3.46-1.671-12.202,5.81-19.682
			c2.393-2.393,4.907-3.927,7.335-4.886c0.463-0.149,0.929-0.313,1.398-0.494c4.627-1.444,8.776-0.917,10.929-0.441
			C166.803,147.502,167.583,156.061,160.186,163.457z M165.984,113.5c0.819,3.729,1.599,12.289-5.798,19.685
			c-2.387,2.387-4.894,3.92-7.315,4.878c-0.472,0.152-0.947,0.319-1.425,0.503c-4.637,1.445-8.793,0.911-10.938,0.434
			c-0.241-1.084-0.496-2.676-0.505-4.581c0-0.028,0-0.055,0-0.083c-0.005-3.818,0.983-8.872,5.027-13.617
			c0.479-0.476,0.961-0.988,1.438-1.539C153.932,111.839,162.529,112.736,165.984,113.5z M136.754,83.028
			c3.215,2.058,9.82,7.559,9.82,18.018c0,6.216-2.332,10.676-4.867,13.69c-0.527,0.528-1.02,1.06-1.485,1.596
			c-1.3,1.264-2.546,2.166-3.446,2.739c-1.019-0.654-2.488-1.731-3.98-3.289c-0.152-0.167-0.306-0.334-0.464-0.5
			c-2.717-3.019-5.365-7.649-5.365-14.236C126.967,90.444,133.752,84.943,136.754,83.028z M107.521,113.507
			c3.473-0.755,12.196-1.652,19.663,5.814c0.047,0.047,0.09,0.095,0.137,0.142c0.285,0.32,0.571,0.626,0.857,0.92
			c3.893,4.395,5.111,9.087,5.299,12.837v2.17c-0.072,1.476-0.279,2.717-0.477,3.609c-2.154,0.479-6.313,1.011-10.95-0.436
			c-0.47-0.181-0.937-0.346-1.402-0.495c-2.426-0.958-4.938-2.492-7.329-4.883C105.928,125.793,106.702,117.239,107.521,113.507z
			 M107.521,143.779c2.186-0.475,6.452-1.005,11.174,0.528c0.311,0.116,0.621,0.226,0.929,0.329
			c2.501,0.948,5.098,2.497,7.559,4.958c4.69,4.69,6.09,9.845,6.294,13.9v2.17c-0.072,1.476-0.279,2.717-0.477,3.609
			c-3.477,0.772-12.175,1.69-19.68-5.815C105.928,156.066,106.702,147.511,107.521,143.779z"/>
		<path style="fill:#8BC53F;" d="M81.477,183.704c-1.957,0-3.843,0.455-5.542,1.309c-10.295-13.364-15.942-29.895-15.942-46.828
			c0-42.326,34.434-76.76,76.76-76.76c5.393,0,10.778,0.562,16.005,1.671c1.758,0.372,3.484-0.75,3.857-2.507
			c0.373-1.757-0.75-3.484-2.507-3.857c-5.67-1.202-11.508-1.812-17.354-1.812c-22.241,0-43.151,8.661-58.877,24.388
			c-15.727,15.727-24.388,36.636-24.388,58.877c0,18.532,6.235,36.623,17.595,51.189c-1.278,1.977-1.966,4.28-1.966,6.69
			c0,3.301,1.286,6.405,3.62,8.74c2.334,2.334,5.438,3.62,8.74,3.62s6.405-1.286,8.74-3.62c2.335-2.335,3.62-5.438,3.62-8.74
			s-1.286-6.405-3.62-8.74C87.882,184.99,84.778,183.704,81.477,183.704z M85.617,200.204L85.617,200.204
			c-2.283,2.283-5.997,2.283-8.28,0c-1.106-1.106-1.715-2.576-1.715-4.14c0-1.564,0.609-3.034,1.715-4.14
			c1.141-1.142,2.64-1.712,4.14-1.712c1.499,0,2.999,0.571,4.14,1.712c1.106,1.106,1.715,2.576,1.715,4.14
			C87.331,197.628,86.722,199.098,85.617,200.204z"/>
		<path style="fill:#8BC53F;" d="M202.423,86.997c1.278-1.977,1.966-4.28,1.966-6.69c0-3.301-1.286-6.405-3.62-8.74
			c-2.334-2.335-5.438-3.62-8.74-3.62c-3.301,0-6.405,1.286-8.74,3.62c-2.334,2.334-3.62,5.438-3.62,8.74s1.286,6.405,3.62,8.74
			c2.334,2.335,5.438,3.62,8.74,3.62c1.957,0,3.843-0.455,5.542-1.309c10.295,13.364,15.942,29.895,15.942,46.828
			c0,42.326-34.434,76.76-76.76,76.76c-4.553,0-9.115-0.401-13.559-1.193c-1.767-0.315-3.458,0.863-3.773,2.632
			c-0.315,1.768,0.863,3.457,2.631,3.773c4.82,0.859,9.766,1.294,14.701,1.294c22.241,0,43.151-8.661,58.878-24.388
			s24.388-36.637,24.388-58.878C220.018,119.653,213.783,101.563,202.423,86.997z M187.89,84.447c-2.283-2.283-2.283-5.997,0-8.28
			c1.106-1.106,2.576-1.715,4.14-1.715c1.564,0,3.034,0.609,4.14,1.715c1.106,1.106,1.715,2.576,1.715,4.14
			c0,1.564-0.609,3.034-1.715,4.14l0,0c-1.106,1.106-2.576,1.715-4.14,1.715C190.466,86.161,188.996,85.553,187.89,84.447z"/>
		<path style="fill:#8BC53F;" d="M108.174,209.45l-1.228,3.012l1.219-3.015c-1.666-0.673-3.561,0.131-4.234,1.796
			c-0.673,1.665,0.131,3.561,1.796,4.235l0.101,0.04c0.383,0.147,0.778,0.216,1.167,0.216c1.31,0,2.548-0.793,3.044-2.087
			C110.681,211.969,109.852,210.092,108.174,209.45z"/>
		<path style="fill:#8BC53F;" d="M165.446,66.968l0.037,0.015c0.399,0.161,0.812,0.237,1.217,0.237c1.287,0,2.505-0.769,3.017-2.035
			c0.673-1.666-0.132-3.561-1.797-4.234l-0.058-0.023c-1.668-0.667-3.561,0.144-4.228,1.812
			C162.967,64.408,163.779,66.301,165.446,66.968z"/>
	</g>
	<g>
		<defs>
			<polygon id="SVGID_19_" points="-847.412,1535 -2052.604,1535 -2058.407,649 -853.215,649 			"/>
		</defs>
		<clipPath id="SVGID_2_">
			<use xlink:href="#SVGID_19_"  style="overflow:visible;"/>
		</clipPath>
	</g>
</g>
<g id="Layer_2">
</g>
</svg>
