<?xml version="1.0" encoding="iso-8859-1"?>
<!-- Generator: Adobe Illustrator 22.0.1, SVG Export Plug-In . SVG Version: 6.00 Build 0)  -->
<svg version="1.1" xmlns="http://www.w3.org/2000/svg" xmlns:xlink="http://www.w3.org/1999/xlink" x="0px" y="0px"
	 viewBox="0 0 270 270" style="enable-background:new 0 0 270 270;" xml:space="preserve">
<g id="Layer_1">
	<g>
		<defs>
			<polygon id="SVGID_19_" points="-847.412,1535 -2052.604,1535 -2058.407,649 -853.215,649 			"/>
		</defs>
		<clipPath id="SVGID_2_">
			<use xlink:href="#SVGID_19_"  style="overflow:visible;"/>
		</clipPath>
	</g>
	<g>
		<path style="fill:#8BC53F;" d="M112.24,198.352c-5.597,0-10.152,4.555-10.152,10.153c0,5.599,4.555,10.154,10.152,10.154
			c5.598,0,10.153-4.555,10.153-10.154C122.393,202.906,117.839,198.352,112.24,198.352L112.24,198.352z M112.24,213.004
			c-2.48,0-4.498-2.018-4.498-4.5c0-2.481,2.018-4.499,4.498-4.499c2.481,0,4.499,2.018,4.499,4.499
			C116.74,210.986,114.722,213.004,112.24,213.004L112.24,213.004z M112.24,213.004"/>
		<path style="fill:#8BC53F;" d="M173.031,208.505c0,5.599,4.555,10.154,10.152,10.154c5.598,0,10.153-4.555,10.153-10.154
			c0-5.598-4.555-10.153-10.153-10.153C177.586,198.352,173.031,202.906,173.031,208.505L173.031,208.505z M187.682,208.505
			c0,2.482-2.018,4.5-4.499,4.5c-2.48,0-4.498-2.018-4.498-4.5c0-2.481,2.018-4.499,4.498-4.499
			C185.664,204.005,187.682,206.023,187.682,208.505L187.682,208.505z M187.682,208.505"/>
		<path style="fill:#8BC53F;" d="M215.527,90.319h-58.758c-1.56,0-2.827,1.266-2.827,2.827c0,1.562,1.266,2.827,2.827,2.827h58.758
			c1.594,0,2.89,1.298,2.89,2.89c0,1.594-1.296,2.89-2.89,2.89c-4.553,0-120.546,0-126.949,0l-1.039-5.779h56.039
			c1.562,0,2.827-1.264,2.827-2.827c0-1.561-1.264-2.827-2.827-2.827H86.524L82.857,69.89c-0.004-0.02-0.008-0.041-0.012-0.063
			c-1.448-7.142-7.79-12.324-15.079-12.324c-7.316,0-23.292,0-28.133,0c-4.711,0-8.543,3.832-8.543,8.541
			c0,4.711,3.832,8.543,8.543,8.543h26.71l18.975,105.693c0.004,0.02,0.008,0.041,0.012,0.063
			c1.284,6.327,6.408,11.113,12.627,12.124c-4.417,3.938-7.205,9.667-7.205,16.036c0,11.85,9.638,21.49,21.488,21.49
			c11.849,0,21.49-9.64,21.49-21.49c0-6.26-2.693-11.904-6.98-15.836h41.924c-4.288,3.932-6.979,9.576-6.979,15.836
			c0,11.85,9.638,21.49,21.488,21.49c8.885,0,16.963-5.583,20.104-13.895c0.551-1.461-0.185-3.092-1.645-3.644
			c-1.46-0.552-3.09,0.184-3.644,1.645c-2.314,6.125-8.268,10.24-14.815,10.24c-8.732,0-15.834-7.105-15.834-15.836
			c0-8.732,7.103-15.834,15.834-15.834c6.547,0,12.501,4.114,14.815,10.238c0.552,1.46,2.183,2.197,3.644,1.645
			c1.46-0.551,2.197-2.183,1.645-3.644c-1.214-3.208-3.165-6.009-5.612-8.239h3.304c4.711,0,8.543-3.834,8.543-8.543
			c0-4.711-3.832-8.543-8.543-8.543H101.83l-1.019-5.679h97.397c5.677,0,10.414-4.358,11.264-10.365l7.382-52.236
			c4.083-0.64,7.216-4.179,7.216-8.439C224.07,94.152,220.238,90.319,215.527,90.319L215.527,90.319z M61.408,68.935H39.633
			c-1.594,0-2.89-1.296-2.89-2.89c0-1.592,1.296-2.888,2.89-2.888h21.775V68.935z M105.766,107.405L108.418,133H94.186
			l-4.594-25.595H105.766z M128.076,208.505c0,8.732-7.104,15.836-15.836,15.836s-15.834-7.105-15.834-15.836
			c0-8.732,7.103-15.836,15.834-15.836S128.076,199.773,128.076,208.505L128.076,208.505z M200.978,181.236
			c1.594,0,2.89,1.298,2.89,2.89c0,1.594-1.296,2.89-2.89,2.89H100.407c-4.6,0-8.603-3.265-9.531-7.768L71.653,72.164
			c-0.004-0.02-0.008-0.041-0.012-0.063c-0.373-1.834-2.002-3.167-3.875-3.167h-0.705v-5.777h0.705c4.6,0,8.605,3.265,9.531,7.766
			l19.225,107.085c0.004,0.022,0.008,0.041,0.012,0.063c0.373,1.833,2.002,3.167,3.873,3.167h100.571V181.236z M99.796,164.251
			L95.2,138.654h13.805l2.652,25.597H99.796z M111.449,107.405h15.832L128.216,133h-14.115L111.449,107.405z M117.342,164.251
			l-2.654-25.597h13.736l0.936,25.597H117.342z M147.346,164.251h-12.328l-0.936-25.597h13.264V164.251z M147.346,133h-13.471
			l-0.936-25.595h14.407V133z M165.328,164.251H153v-25.597h13.265L165.328,164.251z M166.473,133H153v-25.595h14.409L166.473,133z
			 M183.371,164.251h-12.385l0.936-25.597h13.946L183.371,164.251z M186.42,133h-14.29l0.937-25.595h15.85L186.42,133z
			 M203.873,158.746c-0.449,3.19-2.832,5.504-5.665,5.504h-9.156l2.497-25.597h15.165L203.873,158.746z M207.513,133h-15.412
			l2.497-25.595h16.531L207.513,133z M207.513,133"/>
	</g>
</g>
<g id="Layer_2">
</g>
</svg>
