<?xml version="1.0" encoding="iso-8859-1"?>
<!-- Generator: Adobe Illustrator 22.0.1, SVG Export Plug-In . SVG Version: 6.00 Build 0)  -->
<svg version="1.1" xmlns="http://www.w3.org/2000/svg" xmlns:xlink="http://www.w3.org/1999/xlink" x="0px" y="0px"
	 viewBox="0 0 270 270" style="enable-background:new 0 0 270 270;" xml:space="preserve">
<g id="Layer_1">
	<g>
		<path style="fill:#8BC53F;" d="M213.592,190.969c-2.084-12.493-10.844-22.745-22.859-26.751l-26.683-8.893v-3.966h-6.202v5.823
			l-4.626,18.509l-12.524-15.03h-9.11l-12.524,15.03l-4.626-18.509v-5.823h-6.202v3.966l-26.679,8.893
			c-12.016,4.006-20.776,14.258-22.859,26.751L51.86,231.98h84.283h84.283L213.592,190.969z M182.656,200.972h-9.302v-36.007
			l9.302,3.101V200.972z M109.141,161.56l6.871,27.483l18.484-22.18h3.293l18.484,22.18l6.871-27.483l4.006,1.336v38.075h-62.016
			v-38.075L109.141,161.56z M89.631,168.066l9.302-3.101v36.007h-9.321L89.631,168.066z M64.812,191.992
			c1.699-10.192,8.831-18.552,18.617-21.852v30.661l-2.775,24.977h-21.47L64.812,191.992z M86.893,225.779l2.068-18.605h94.38
			l2.053,18.605h-49.25H86.893z M191.632,225.779l-2.775-24.977V170.14c9.786,3.299,16.918,11.659,18.617,21.852l5.628,33.787
			H191.632z"/>
		<path style="fill:#8BC53F;" d="M76.601,109.16l1.253-6.075c-17.941-3.693-19.225-7.51-19.231-7.538
			c0.533-4.208,28.376-12.406,77.521-12.406s76.987,8.199,77.521,12.397c-0.006,0.037-1.29,3.854-19.231,7.547l1.253,6.075
			c16.496-3.398,24.18-7.724,24.18-13.616c0-8.295-17.393-13.147-37.759-15.805c-3.191-22.673-22.769-40.01-45.963-40.01
			S93.37,57.066,90.18,79.739c-20.366,2.657-37.759,7.51-37.759,15.805C52.421,101.436,60.105,105.761,76.601,109.16z
			 M136.143,45.931c19.544,0,36.14,14.205,39.588,33.055c-13.982-1.488-28.63-2.047-39.588-2.047
			c-10.958,0-25.607,0.558-39.588,2.047C100.003,60.136,116.599,45.931,136.143,45.931z"/>
		<path style="fill:#8BC53F;" d="M173.679,91.184c-11.578-1.222-24.208-1.842-37.535-1.842c-13.327,0-25.957,0.62-37.535,1.842
			l-2.775,0.295v1.278c-7.067,1.442-12.403,7.702-12.403,15.191c0,7.957,6.047,14.456,13.774,15.33
			c1.581,5.442,4.502,10.431,8.62,14.549l12.09,12.093c2.927,2.927,6.822,4.54,10.965,4.54h14.53c4.143,0,8.037-1.612,10.965-4.54
			l12.09-12.093c4.118-4.118,7.036-9.11,8.62-14.549c7.727-0.874,13.774-7.374,13.774-15.33c0-7.485-5.337-13.749-12.403-15.191
			v-1.278L173.679,91.184z M89.631,107.947c0-4.037,2.602-7.448,6.202-8.732v14.493c0,1.014,0.059,2.019,0.146,3.017
			C92.304,115.482,89.631,112.037,89.631,107.947z M170.252,113.709c0,7.454-2.905,14.462-8.174,19.734l-12.09,12.093
			c-1.758,1.755-4.093,2.723-6.58,2.723h-14.53c-2.487,0-4.825-0.967-6.58-2.723l-12.09-12.093
			c-5.268-5.271-8.174-12.279-8.174-19.734V97.073c10.599-1.014,22.056-1.529,34.109-1.529c12.053,0,23.51,0.515,34.109,1.529
			V113.709z M182.656,107.947c0,4.09-2.673,7.535-6.347,8.775c0.087-0.995,0.146-2,0.146-3.014V99.215
			C180.054,100.499,182.656,103.91,182.656,107.947z"/>
		<path style="fill:#8BC53F;" d="M117.538,126.552v9.302h37.21v-9.302c0-5.129-4.174-9.302-9.302-9.302h-18.605
			C121.712,117.25,117.538,121.423,117.538,126.552z M148.546,126.552v3.101H123.74v-3.101c0-1.709,1.389-3.101,3.101-3.101h18.605
			C147.157,123.451,148.546,124.844,148.546,126.552z"/>
		<rect x="133.042" y="176.165" style="fill:#8BC53F;" width="6.202" height="6.202"/>
		<rect x="133.042" y="188.569" style="fill:#8BC53F;" width="6.202" height="6.202"/>
	</g>
	<g>
		<defs>
			<polygon id="SVGID_19_" points="-847.412,1535 -2052.604,1535 -2058.407,649 -853.215,649 			"/>
		</defs>
		<clipPath id="SVGID_2_">
			<use xlink:href="#SVGID_19_"  style="overflow:visible;"/>
		</clipPath>
	</g>
</g>
<g id="Layer_2">
</g>
</svg>
