<?xml version="1.0" encoding="iso-8859-1"?>
<!-- Generator: Adobe Illustrator 22.0.1, SVG Export Plug-In . SVG Version: 6.00 Build 0)  -->
<svg version="1.1" xmlns="http://www.w3.org/2000/svg" xmlns:xlink="http://www.w3.org/1999/xlink" x="0px" y="0px"
	 viewBox="0 0 270 270" style="enable-background:new 0 0 270 270;" xml:space="preserve">
<g id="Layer_1">
	<g>
		<defs>
			<polygon id="SVGID_19_" points="-847.412,1535 -2052.604,1535 -2058.407,649 -853.215,649 			"/>
		</defs>
		<clipPath id="SVGID_2_">
			<use xlink:href="#SVGID_19_"  style="overflow:visible;"/>
		</clipPath>
	</g>
	<g>
		<path style="fill:#8BC53F;" d="M69.456,191.869c-8.561,0-15.525,6.964-15.525,15.525s6.964,15.525,15.525,15.525H206.08
			c8.561,0,15.525-6.964,15.525-15.525s-6.964-15.525-15.525-15.525H69.456z M147.083,207.395c0,5.137-4.178,9.315-9.315,9.315
			c-5.137,0-9.315-4.178-9.315-9.315s4.178-9.315,9.315-9.315C142.905,198.08,147.083,202.258,147.083,207.395L147.083,207.395z
			 M150.108,198.08h43.628c-1.967,2.602-3.182,5.806-3.182,9.315s1.215,6.714,3.186,9.315h-43.633
			c1.971-2.602,3.186-5.806,3.186-9.315S152.078,200.681,150.108,198.08L150.108,198.08z M125.428,216.71H81.796
			c1.971-2.602,3.186-5.806,3.186-9.315s-1.215-6.714-3.186-9.315h43.628c-1.967,2.602-3.182,5.806-3.182,9.315
			S123.458,214.109,125.428,216.71L125.428,216.71z M60.141,207.395c0-5.137,4.178-9.315,9.315-9.315
			c5.137,0,9.315,4.178,9.315,9.315s-4.178,9.315-9.315,9.315C64.319,216.71,60.141,212.532,60.141,207.395L60.141,207.395z
			 M215.395,207.395c0,5.137-4.178,9.315-9.315,9.315s-9.315-4.178-9.315-9.315s4.178-9.315,9.315-9.315
			S215.395,202.258,215.395,207.395L215.395,207.395z M215.395,207.395"/>
		<path style="fill:#8BC53F;" d="M100.507,86.297c1.714,0,3.105-1.391,3.105-3.105v-9.315h6.21c1.714,0,3.105-1.391,3.105-3.105
			v-3.105H230.92c1.714,0,3.105-1.391,3.105-3.105v-12.42c0-1.714-1.391-3.105-3.105-3.105H112.927v-3.105
			c0-1.714-1.391-3.105-3.105-3.105H78.772c-1.714,0-3.105,1.391-3.105,3.105v3.105H44.616c-1.714,0-3.105,1.391-3.105,3.105v12.42
			c0,1.714,1.391,3.105,3.105,3.105h31.051v3.105c0,1.714,1.391,3.105,3.105,3.105h6.21v9.315c0,1.714,1.391,3.105,3.105,3.105
			h3.105v12.42h-3.105c-1.714,0-3.105,1.391-3.105,3.105v16.633c0,1.599-1.019,3.012-2.533,3.515
			c-4.055,1.354-6.782,5.133-6.782,9.412v44.961c0,1.094,0.225,2.131,0.572,3.105h-6.782c-15.408,0-27.946,12.538-27.946,27.946
			s12.538,27.946,27.946,27.946H206.08c15.408,0,27.946-12.538,27.946-27.946s-12.538-27.946-27.946-27.946h-6.782
			c0.347-0.974,0.572-2.012,0.572-3.105v-44.961c0-4.276-2.727-8.058-6.782-9.408c-1.514-0.507-2.533-1.92-2.533-3.519v-16.633
			c0-1.714-1.391-3.105-3.105-3.105h-12.42c-1.714,0-3.105,1.391-3.105,3.105v16.633c0,1.599-1.019,3.012-2.533,3.515
			c-4.055,1.354-6.782,5.133-6.782,9.412v44.961c0,1.094,0.225,2.131,0.572,3.105h-7.356c0.349-0.974,0.574-2.012,0.574-3.105
			v-44.961c0-4.276-2.727-8.058-6.782-9.408c-1.514-0.507-2.533-1.92-2.533-3.519v-16.633c0-1.714-1.391-3.105-3.105-3.105h-12.42
			c-1.714,0-3.105,1.391-3.105,3.105v16.633c0,1.599-1.019,3.012-2.533,3.515c-4.055,1.354-6.782,5.133-6.782,9.412v44.961
			c0,1.094,0.225,2.131,0.572,3.105h-7.356c0.349-0.974,0.574-2.012,0.574-3.105v-44.961c0-4.276-2.727-8.058-6.782-9.408
			c-1.514-0.507-2.533-1.92-2.533-3.519v-16.633c0-1.714-1.391-3.105-3.105-3.105h-3.105v-12.42H100.507z M227.815,55.246v6.21
			H112.927v-6.21H227.815z M47.721,61.456v-6.21h27.946v6.21H47.721z M81.877,142.188h12.42v24.841h-12.42V142.188z M206.08,185.659
			c11.986,0,21.736,9.75,21.736,21.736s-9.75,21.736-21.736,21.736H69.456c-11.986,0-21.736-9.75-21.736-21.736
			s9.75-21.736,21.736-21.736H206.08z M168.819,142.188h12.42v24.841h-12.42V142.188z M168.819,176.344v-3.105h15.525
			c1.714,0,3.105-1.391,3.105-3.105v-31.051c0-1.714-1.391-3.105-3.105-3.105h-15.525v-4.595c0-1.599,1.019-3.012,2.533-3.515
			c4.059-1.354,6.782-5.137,6.782-9.412v-13.528h6.21v13.528c0,4.273,2.723,8.056,6.782,9.408c1.514,0.508,2.533,1.92,2.533,3.52
			v44.961c0,1.71-1.395,3.105-3.105,3.105h-18.63C170.214,179.449,168.819,178.054,168.819,176.344L168.819,176.344z
			 M125.348,142.188h12.42v24.841h-12.42V142.188z M125.348,176.344v-3.105h15.525c1.714,0,3.105-1.391,3.105-3.105v-31.051
			c0-1.714-1.391-3.105-3.105-3.105h-15.525v-4.595c0-1.599,1.019-3.012,2.533-3.515c4.059-1.354,6.782-5.137,6.782-9.412v-13.528
			h6.21v13.528c0,4.273,2.723,8.056,6.782,9.408c1.514,0.508,2.533,1.92,2.533,3.52v44.961c0,1.71-1.395,3.105-3.105,3.105h-18.63
			C126.742,179.449,125.348,178.054,125.348,176.344L125.348,176.344z M104.184,127.863c1.514,0.508,2.533,1.92,2.533,3.52v44.961
			c0,1.71-1.395,3.105-3.105,3.105h-18.63c-1.71,0-3.105-1.395-3.105-3.105v-3.105h15.525c1.714,0,3.105-1.391,3.105-3.105v-31.051
			c0-1.714-1.391-3.105-3.105-3.105H81.877v-4.595c0-1.599,1.019-3.012,2.533-3.515c4.059-1.354,6.782-5.137,6.782-9.412v-13.528
			h6.21v13.528C97.402,122.731,100.125,126.513,104.184,127.863L104.184,127.863z M81.877,49.036h24.841v18.63H81.877V49.036z
			 M97.402,73.876v6.21h-6.21v-6.21H97.402z M97.402,73.876"/>
	</g>
</g>
<g id="Layer_2">
</g>
</svg>
