<?xml version="1.0" encoding="UTF-8"?>
<!DOCTYPE svg PUBLIC "-//W3C//DTD SVG 1.1//EN" "http://www.w3.org/Graphics/SVG/1.1/DTD/svg11.dtd">
<!-- Creator: CorelDRAW 2021 (64-Bit) -->
<svg xmlns="http://www.w3.org/2000/svg" xml:space="preserve" width="42.3334mm" height="42.3333mm" version="1.1" style="shape-rendering:geometricPrecision; text-rendering:geometricPrecision; image-rendering:optimizeQuality; fill-rule:evenodd; clip-rule:evenodd"
viewBox="0 0 3414.35 3414.34"
 xmlns:xlink="http://www.w3.org/1999/xlink"
 xmlns:xodm="http://www.corel.com/coreldraw/odm/2003">
 <defs>
  <style type="text/css">
   <![CDATA[
    .fil1 {fill:#2CA7E3}
    .fil0 {fill:#3BA83D}
   ]]>
  </style>
 </defs>
 <g id="Layer_x0020_1">
  <metadata id="CorelCorpID_0Corel-Layer"/>
  <g id="_3060775450736">
   <g>
    <path class="fil0" d="M647.93 1133.12c554.53,39.91 663.32,-73.25 1066.3,382.31 -85.64,33.43 -135.99,90.23 -172.03,156.5 -102.48,-122.62 -262.79,-321.16 -586.32,-367.86 218.07,136.82 429.05,283.26 497.92,455.67 -143.06,83.75 -215.89,204.43 -255.65,325.12 -238.71,-227.02 -316.28,-698.22 -635.55,-878.05 -111.58,-60.39 -96.62,-75.42 85.33,-73.68z"/>
    <path class="fil0" d="M1250.21 301.65c1717.05,0.06 2179.69,1789.29 793.26,2425.36 -86.54,-69.44 522.43,-220.42 281.93,-1608.99 -374.05,516.39 -1138.7,648.93 -1084.75,1276.76l186.37 303.76c33.16,-93.63 117.34,-144.67 178.58,-208.16 216.86,-224.81 420.11,-578.92 590.77,-874 137.96,92.94 -293.36,1007.18 -745.47,1219.8l47.79 204.09c2306.64,328.88 2052.86,-3287.09 -248.49,-2738.62z"/>
   </g>
   <g>
    <path class="fil1" d="M-0 1650.24c240.36,-94.57 119.4,403 363.39,599.12 -149.42,-171.9 -208.51,-627.3 -36.34,-440.32 137.43,449.91 43.61,38.5 65.41,57.75 220.62,-59.14 43.77,323.16 155.98,407.58 160.82,262.17 480.62,334.14 287.34,54.4 -394.16,-344.25 -188.75,-446.33 113.78,-165.54 230.31,244.55 398.31,324.01 503.97,894.6 478.11,180.23 1029.66,17.61 1635.21,-397.01 -862.86,1369.94 -2974.62,776.66 -3088.73,-1010.58z"/>
    <ellipse class="fil1" cx="1825.47" cy="1130.45" rx="191.15" ry="189.85"/>
    <ellipse class="fil1" cx="2567.06" cy="1210.84" rx="108.04" ry="107.31"/>
    <path class="fil1" d="M519.21 709.12c1420.65,-1898.15 4236.66,428.31 2151.91,2137.35 563.5,-561 740.4,-1430.1 135.89,-2156.18 -601.27,-713.57 -1548.65,-673.66 -2287.79,18.83z"/>
    <ellipse class="fil1" cx="2612.77" cy="1501.4" rx="122.96" ry="122.13"/>
    <ellipse class="fil1" cx="2640.16" cy="1815.07" rx="108.04" ry="107.31"/>
    <ellipse class="fil1" cx="2492.21" cy="984.64" rx="95.6" ry="94.95"/>
    <ellipse class="fil1" cx="2357.48" cy="793.31" rx="87.98" ry="87.38"/>
    <ellipse class="fil1" cx="2209.92" cy="656.41" rx="74.05" ry="73.55"/>
    <ellipse class="fil1" cx="2586.19" cy="2035.46" rx="82.44" ry="81.88"/>
    <ellipse class="fil1" cx="2499.82" cy="2223.68" rx="72.36" ry="71.87"/>
   </g>
  </g>
 </g>
</svg>
